<?xml version="1.0" encoding="utf-8"?>
<!-- Generator: Adobe Illustrator 27.1.1, SVG Export Plug-In . SVG Version: 6.00 Build 0)  -->
<svg version="1.1" id="Laag_1" xmlns="http://www.w3.org/2000/svg" xmlns:xlink="http://www.w3.org/1999/xlink" x="0px" y="0px"
	 viewBox="0 0 2500 2500" style="enable-background:new 0 0 2500 2500;" xml:space="preserve">
<style type="text/css">
	.st0{fill-rule:evenodd;clip-rule:evenodd;}
</style>
<g>
	<path class="st0" d="M595.5,1543.1l-119.7,119.7l-118.8-119.7l53.3-53.3v-109.4h-115v109.4l53.3,53.3L229,1662.8l-118.7-119.7
		l53.3-53.3v-482.5L360.8,812l181.4,181.4v496.5L595.5,1543.1z M410.4,1243v-171.1l-115-115V1243H410.4L410.4,1243z M1011.1,1003.6
		l-100,98.2L769,956.9v490.9l34.6,33.7l107.5-108.5l96.3,94.4l-196.3,195.4l-173.9-173V993.3L820.4,811L1011.1,1003.6L1011.1,1003.6
		z M1453.4,1208.4l-345,480.6l120.6-347.8h-120.6l157.1-360.9h148.7l-84.1,228.1H1453.4z M1920.7,1506.6l-154.3,156.2h-176.7
		L1486,1556.2l56.1-55.2V974.6l-57-57l104.7-104.7h176.7L1920.7,969L1920.7,1506.6L1920.7,1506.6z M1788.9,1431.8v-388l-115-111.3
		v610.6L1788.9,1431.8L1788.9,1431.8z M2389.7,1003.6l-100.1,98.2l-142.1-144.9v490.9l34.6,33.7l107.5-108.5l96.3,94.4l-196.3,195.4
		l-173.9-173V993.3L2199,811L2389.7,1003.6L2389.7,1003.6z"/>
</g>
</svg>
