<svg xmlns="http://www.w3.org/2000/svg" width="615" height="196" viewBox="0 0 615 196">
  <g id="Group_8" data-name="Group 8" transform="translate(0 -884)">
    <g id="Group_3" data-name="Group 3" transform="translate(410 974)">
      <rect id="Rectangle_2" data-name="Rectangle 2" width="205" height="90.127" transform="translate(0 15.873)" fill="#00bf3b"/>
      <rect id="Rectangle_3" data-name="Rectangle 3" width="6" height="90.127" transform="translate(0 15.873)" fill="#009d3b"/>
      <rect id="Rectangle_4" data-name="Rectangle 4" width="6" height="90.127" transform="translate(199 15.873)" fill="#00c83b"/>
      <path id="Path_27" data-name="Path 27" d="M0,15.873l6,4.935H199l6-4.935Z" fill="#00de75"/>
      <rect id="Rectangle_5" data-name="Rectangle 5" width="51" height="15.873" transform="translate(27)" fill="#00bf3b"/>
      <rect id="Rectangle_6" data-name="Rectangle 6" width="1.493" height="15.873" transform="translate(27)" fill="#009d3b"/>
      <rect id="Rectangle_7" data-name="Rectangle 7" width="1.492" height="15.873" transform="translate(76.508)" fill="#00c83b"/>
      <path id="Path_28" data-name="Path 28" d="M27,0l1.493.869H76.507L78,0Z" fill="#00de75"/>
      <rect id="Rectangle_8" data-name="Rectangle 8" width="51" height="15.873" transform="translate(120)" fill="#00bf3b"/>
      <rect id="Rectangle_9" data-name="Rectangle 9" width="1.493" height="15.873" transform="translate(120)" fill="#009d3b"/>
      <rect id="Rectangle_10" data-name="Rectangle 10" width="1.492" height="15.873" transform="translate(169.508)" fill="#00c83b"/>
      <path id="Path_29" data-name="Path 29" d="M120,0l1.493.869h48.015L171,0Z" fill="#00de75"/>
    </g>
    <g id="Group_4" data-name="Group 4" transform="translate(205 974)">
      <rect id="Rectangle_11" data-name="Rectangle 11" width="205" height="90.127" transform="translate(0 15.873)" fill="gold"/>
      <rect id="Rectangle_12" data-name="Rectangle 12" width="6" height="90.127" transform="translate(0 15.873)" fill="#ffbc00"/>
      <rect id="Rectangle_13" data-name="Rectangle 13" width="6" height="90.127" transform="translate(199 15.873)" fill="#ffd769"/>
      <path id="Path_30" data-name="Path 30" d="M0,15.873l6,4.935H199l6-4.935Z" fill="#ffd79a"/>
      <rect id="Rectangle_14" data-name="Rectangle 14" width="51" height="15.873" transform="translate(27)" fill="gold"/>
      <rect id="Rectangle_15" data-name="Rectangle 15" width="1.493" height="15.873" transform="translate(27)" fill="#ffbc00"/>
      <rect id="Rectangle_16" data-name="Rectangle 16" width="1.492" height="15.873" transform="translate(76.508)" fill="#ffd769"/>
      <path id="Path_31" data-name="Path 31" d="M27,0l1.493.869H76.507L78,0Z" fill="#ffd79a"/>
      <rect id="Rectangle_17" data-name="Rectangle 17" width="51" height="15.873" transform="translate(120)" fill="gold"/>
      <rect id="Rectangle_18" data-name="Rectangle 18" width="1.493" height="15.873" transform="translate(120)" fill="#ffbc00"/>
      <rect id="Rectangle_19" data-name="Rectangle 19" width="1.492" height="15.873" transform="translate(169.508)" fill="#ffd769"/>
      <path id="Path_32" data-name="Path 32" d="M120,0l1.493.869h48.015L171,0Z" fill="#ffd79a"/>
    </g>
    <g id="Group_5" data-name="Group 5" transform="translate(0 974)">
      <rect id="Rectangle_20" data-name="Rectangle 20" width="205" height="90.127" transform="translate(0 15.873)" fill="red"/>
      <rect id="Rectangle_21" data-name="Rectangle 21" width="6" height="90.127" transform="translate(0 15.873)" fill="#c60000"/>
      <rect id="Rectangle_22" data-name="Rectangle 22" width="6" height="90.127" transform="translate(199 15.873)" fill="#ff3e32"/>
      <path id="Path_33" data-name="Path 33" d="M0,15.873l6,4.935H199l6-4.935Z" fill="#ff6232"/>
      <rect id="Rectangle_23" data-name="Rectangle 23" width="51" height="15.873" transform="translate(27)" fill="red"/>
      <rect id="Rectangle_24" data-name="Rectangle 24" width="1.493" height="15.873" transform="translate(27)" fill="#c60000"/>
      <rect id="Rectangle_25" data-name="Rectangle 25" width="1.492" height="15.873" transform="translate(76.508)" fill="#ff3e32"/>
      <path id="Path_34" data-name="Path 34" d="M27,0l1.493.869H76.507L78,0Z" fill="#ff6232"/>
      <rect id="Rectangle_26" data-name="Rectangle 26" width="51" height="15.873" transform="translate(120)" fill="red"/>
      <rect id="Rectangle_27" data-name="Rectangle 27" width="1.493" height="15.873" transform="translate(120)" fill="#c60000"/>
      <rect id="Rectangle_28" data-name="Rectangle 28" width="1.492" height="15.873" transform="translate(169.508)" fill="#ff3e32"/>
      <path id="Path_35" data-name="Path 35" d="M120,0l1.493.869h48.015L171,0Z" fill="#ff6232"/>
    </g>
    <g id="Group_6" data-name="Group 6" transform="translate(0 884)">
      <rect id="Rectangle_11-2" data-name="Rectangle 11" width="205" height="90.127" transform="translate(0 15.873)" fill="gold"/>
      <rect id="Rectangle_12-2" data-name="Rectangle 12" width="6" height="90.127" transform="translate(0 15.873)" fill="#ffbc00"/>
      <rect id="Rectangle_13-2" data-name="Rectangle 13" width="6" height="90.127" transform="translate(199 15.873)" fill="#ffd769"/>
      <path id="Path_30-2" data-name="Path 30" d="M0,15.873l6,4.935H199l6-4.935Z" fill="#ffd79a"/>
      <rect id="Rectangle_14-2" data-name="Rectangle 14" width="51" height="15.873" transform="translate(27)" fill="gold"/>
      <rect id="Rectangle_15-2" data-name="Rectangle 15" width="1.493" height="15.873" transform="translate(27)" fill="#ffbc00"/>
      <rect id="Rectangle_16-2" data-name="Rectangle 16" width="1.492" height="15.873" transform="translate(76.508)" fill="#ffd769"/>
      <path id="Path_31-2" data-name="Path 31" d="M27,0l1.493.869H76.507L78,0Z" fill="#ffd79a"/>
      <rect id="Rectangle_17-2" data-name="Rectangle 17" width="51" height="15.873" transform="translate(120)" fill="gold"/>
      <rect id="Rectangle_18-2" data-name="Rectangle 18" width="1.493" height="15.873" transform="translate(120)" fill="#ffbc00"/>
      <rect id="Rectangle_19-2" data-name="Rectangle 19" width="1.492" height="15.873" transform="translate(169.508)" fill="#ffd769"/>
      <path id="Path_32-2" data-name="Path 32" d="M120,0l1.493.869h48.015L171,0Z" fill="#ffd79a"/>
    </g>
  </g>
</svg>
