<svg id="Group_2" data-name="Group 2" xmlns="http://www.w3.org/2000/svg" xmlns:xlink="http://www.w3.org/1999/xlink" width="1345" height="452" viewBox="0 0 1345 452">
  <defs>
    <clipPath id="clip-path">
      <rect id="Rectangle_1" data-name="Rectangle 1" width="1345" height="452" fill="none"/>
    </clipPath>
  </defs>
  <g id="Group_1" data-name="Group 1" clip-path="url(#clip-path)">
    <path id="Path_2" data-name="Path 2" d="M1218.592,11A115.408,115.408,0,0,1,1334,126.408V325.592A115.408,115.408,0,0,1,1218.592,441H126.408A115.408,115.408,0,0,1,11,325.592V126.408A115.408,115.408,0,0,1,126.408,11Zm0-11H126.408A126.408,126.408,0,0,0,0,126.408V325.592A126.408,126.408,0,0,0,126.408,452H1218.592A126.408,126.408,0,0,0,1345,325.592V126.408A126.408,126.408,0,0,0,1218.592,0"/>
    <path id="Path_1" data-name="Path 1" d="M1218.592,441H126.408A115.408,115.408,0,0,1,11,325.592V126.408A115.408,115.408,0,0,1,126.408,11H1218.592A115.408,115.408,0,0,1,1334,126.408V325.592A115.408,115.408,0,0,1,1218.592,441" fill="#e3000b"/>
    <path id="Path_3" data-name="Path 3" d="M772.292,96.715c.461,11-2.425,20.341-5.708,29.606-3.081,8.7-6.969,16.984-12.9,24.117a34.65,34.65,0,0,1-22.466,12.619,37.539,37.539,0,0,1-18.605-1.8,22.2,22.2,0,0,1-9.995-6.748c-.779-.971-1.205-.269-1.739.15A38.777,38.777,0,0,1,687.9,161.67c-8.907,2.613-17.76,2.859-26.37-1.28-.126-.061-.321-.036-.4-.126-3.161-3.461-6.132-1.826-9.674-.252-11.027,4.9-22.107,5.307-32.826-1.176a2.273,2.273,0,0,0-2.59-.148,36.26,36.26,0,0,1-23.371,4.236c-11.41-1.519-19.85-9.659-20-21.975-.1-7.763,2.067-15.11,4.431-22.356A187.86,187.86,0,0,1,590.1,88.238c2.223-4.155,4.422-8.329,7.933-11.677A23.47,23.47,0,0,1,612.8,69.994c4.784-.373,9.6-.194,14.081,2.048a7.562,7.562,0,0,1,3.751,3.414c.317.661.676.979,1.367.44,5.156-4.011,11.088-5.507,17.528-6.088,6.229-.562,12.277-.487,18.277,1.359a19.337,19.337,0,0,1,5.884,3.076,1.652,1.652,0,0,0,2.176.189,35.836,35.836,0,0,1,17.845-4.8c8.886-.013,17.821.5,25.151,6.659.94.79,1.651.678,2.662-.041a33.821,33.821,0,0,1,20.755-6.387c6.087.107,11.988.582,17.445,3.548,6.81,3.7,10.623,9.518,12.25,17,.534,2.452.2,4.879.323,6.313m-69.362,48.33a18.859,18.859,0,0,0,6.953,8.909c7.368,5.074,15.518,5.178,23.743,3.129,8.094-2.017,14.27-6.888,18.856-13.917a82.682,82.682,0,0,0,8.639-17.9c3.728-10.607,7.247-21.311,5.559-32.826-.781-5.315-3.088-9.859-7.654-13.038a24.719,24.719,0,0,0-11.033-3.9,33.594,33.594,0,0,0-19.772,2.76,31.312,31.312,0,0,0-9.169,7.357,19.482,19.482,0,0,0-11.122-8.98c-6.776-2.176-13.715-1.954-20.581-.893a25.311,25.311,0,0,0-11.884,5.241c-1.151.916-1.647.871-2.5-.157A15.971,15.971,0,0,0,661.2,75.257a67.584,67.584,0,0,0-14.245.286c-6.925,1.072-12.651,4.043-16.882,9.706-.251.336-.438.831-.944.695-.581-.156-.324-.719-.336-1.1-.156-4.743-3.312-7.7-7.65-8.856-2.858-.765-5.73-.233-8.591-.391-2.781-.153-5.211.944-7.593,2.245-4.589,2.508-6.884,6.9-9.186,11.229A183.438,183.438,0,0,0,579.9,128.247c-1.309,4.95-2.593,9.971-1.612,15.291,1.269,6.884,5.006,11.665,11.709,13.308,9.255,2.27,18.219,1.465,26.039-4.783.855-.683,1.615-1.1,2.514.012a14.47,14.47,0,0,0,5.017,3.531,26.487,26.487,0,0,0,16.167,2.268c5.963-.858,11.429-2.639,15.915-6.768.937-.863,1.389-.63,2.048.148a17.6,17.6,0,0,0,5.784,4.329,27.888,27.888,0,0,0,17,2.266c9.047-1.4,16.284-5.793,22.452-12.8" fill="#feec00"/>
    <path id="Path_4" data-name="Path 4" d="M702.93,145.044c-6.168,7.012-13.4,11.408-22.452,12.8a27.889,27.889,0,0,1-17-2.267,17.588,17.588,0,0,1-5.783-4.329c-.659-.777-1.111-1.01-2.048-.148-4.486,4.129-9.952,5.911-15.916,6.769a26.48,26.48,0,0,1-16.167-2.269,14.458,14.458,0,0,1-5.017-3.531c-.9-1.11-1.659-.694-2.514-.011-7.821,6.247-16.785,7.052-26.04,4.783-6.7-1.644-10.438-6.425-11.707-13.308-.981-5.32.3-10.342,1.612-15.291a183.443,183.443,0,0,1,15.875-39.179c2.3-4.326,4.6-8.721,9.187-11.228,2.381-1.3,4.811-2.4,7.592-2.245,2.861.157,5.733-.375,8.592.39,4.336,1.16,7.493,4.114,7.649,8.857.013.383-.245.946.336,1.1.506.136.692-.359.944-.7,4.231-5.662,9.958-8.633,16.881-9.706a67.662,67.662,0,0,1,14.246-.286,15.966,15.966,0,0,1,11.762,5.574c.856,1.029,1.351,1.073,2.5.158a25.326,25.326,0,0,1,11.885-5.242c6.866-1.06,13.8-1.282,20.58.893a19.488,19.488,0,0,1,11.123,8.98,31.3,31.3,0,0,1,9.169-7.356,33.59,33.59,0,0,1,19.771-2.76,24.707,24.707,0,0,1,11.032,3.9c4.568,3.178,6.875,7.722,7.654,13.037,1.689,11.515-1.829,22.22-5.558,32.826a82.667,82.667,0,0,1-8.639,17.9c-4.586,7.028-10.762,11.9-18.855,13.916-8.225,2.05-16.376,1.945-23.744-3.129a18.854,18.854,0,0,1-6.953-8.909M760.6,97.937a31.615,31.615,0,0,0-.017-3.259c-.423-4.079-1.807-7.611-5.427-10.029-5.867-3.92-12.373-3.519-18.707-2.339-7.309,1.363-12.317,6.247-15.8,12.666a116.021,116.021,0,0,0-9.4,23.792c-1.892,6.671-3.9,13.426-2.865,20.577.663,4.572,2.705,8.1,6.925,10.205,4.768,2.378,9.789,2.563,14.933,1.729a22.776,22.776,0,0,0,14.05-7.939c5.07-5.986,8.2-13.112,10.892-20.4,2.979-8.068,5.339-16.293,5.418-25m-71.362,26.92a22.657,22.657,0,0,1-.908,3.055c-1.43,3.143-3.205,6.024-6.67,7.31-3.816,1.417-6.145-.454-6.284-3.979a14.27,14.27,0,0,1,.633-3.526,87.24,87.24,0,0,1,4.2-13.587c2.114-5.248,3.91-10.656,7.232-15.368a7.49,7.49,0,0,1,4.151-3.02c1.423-.408,3.3-.663,4.326.409.852.891.455,2.567-.113,3.861a7.254,7.254,0,0,0-.241.792c-.73,2.369.025,4.117,2.24,5.354,2.876,1.606,8.767.843,11.554-1.732a13.745,13.745,0,0,0,4.325-9.586c.411-5.394-1.188-8.723-5.542-10.937-4.177-2.125-8.693-2.242-13.261-2.255-9.569-.027-16.865,4.026-22.184,11.892a88.915,88.915,0,0,0-11.275,25.012c-2,6.782-4.011,13.588-2.58,20.793.859,4.329,2.989,7.85,6.963,10.011,4.328,2.353,8.875,2.629,13.762,2.022a26.293,26.293,0,0,0,15.483-7.523,35.582,35.582,0,0,0,11.174-26.628,6.631,6.631,0,0,0-5.154-6.434,21.721,21.721,0,0,0-6.615-.379c-6.371.263-8.59,2.13-10.718,7.962a4.758,4.758,0,0,0,1.865,5.516c1.066.795,2.367.784,3.641.965M644.18,107.218c.738-2.125,1.951-4.049,2.713-6.132.667-1.823,1.736-2.129,3.4-2.037a43.872,43.872,0,0,0,5.869,0,17.848,17.848,0,0,0,8.757-2.547,8.538,8.538,0,0,0,3.835-9.295c-.542-2.991-3.075-4.356-5.842-5.087a33.514,33.514,0,0,0-18.491.682c-6.084,1.823-9.564,6.6-12.485,11.76a107.291,107.291,0,0,0-7.733,17.265c-3.034,8.629-5.895,17.373-5.386,26.718a12.291,12.291,0,0,0,5.24,9.688c5.123,3.694,10.77,4.085,16.774,2.922,4.4-.853,8.394-2.337,11.455-5.766a10.621,10.621,0,0,0,2.524-8.909c-.395-2.791-3.652-4.794-7.2-4.773-3.57.021-7.161-.251-10.657.832-.859.266-1.455-.023-1.115-1.1.839-2.661,1.762-5.3,2.478-7.993.2-.75.456-1.129,1.059-.841,1.027.491,2.11.275,3.145.5,6.123,1.35,14.629-1.64,15.52-8.982.425-3.509-.16-5.3-3.581-6.352-3.319-1.022-6.74-.071-10.281-.55m-46.9,44.06a30.16,30.16,0,0,0,6.727-.418c5.579-1.295,10.148-3.813,11.983-9.7,1.334-4.276.142-7.385-3.423-8.435a18.4,18.4,0,0,0-7.446-.5c-.451.056-.786.511-1.291-.005-.561-.574-.023-.859.172-1.274,3.793-8.064,7.617-16.115,11.349-24.208,2.521-5.466,4.964-10.979,6.263-16.895.718-3.273.269-6.785-3.263-7.431-5.149-.943-9.953-.586-13.553,4.653-4.856,7.068-8.338,14.864-11.53,22.725-3.783,9.315-7.473,18.713-8.513,28.911-.437,4.286.829,8.21,4.354,10.623a12.293,12.293,0,0,0,8.171,1.954" fill="#010101"/>
    <path id="Path_5" data-name="Path 5" d="M760.6,97.937c-.079,8.708-2.44,16.932-5.419,25-2.692,7.291-5.822,14.418-10.891,20.4a22.776,22.776,0,0,1-14.05,7.939c-5.145.834-10.165.649-14.934-1.729-4.219-2.1-6.261-5.633-6.924-10.205-1.038-7.151.973-13.906,2.865-20.577a116.013,116.013,0,0,1,9.4-23.791c3.483-6.42,8.491-11.3,15.8-12.666,6.334-1.181,12.839-1.581,18.706,2.338,3.62,2.418,5,5.95,5.428,10.029a31.894,31.894,0,0,1,.017,3.259M744.533,99.38c-.026-1.217.291-2.572-1.113-3.253a5.386,5.386,0,0,0-6.277,1.99,55.159,55.159,0,0,0-3.554,7.141,190.024,190.024,0,0,0-8.157,23.28,19.619,19.619,0,0,0-.466,2.493c-.25,1.667-.238,3.7,1.425,4.376a4.544,4.544,0,0,0,5.188-.995,17.593,17.593,0,0,0,3.146-5.008,180.955,180.955,0,0,0,6.7-17.627c1.319-4.048,2.8-8.09,3.113-12.4" fill="#fff"/>
    <path id="Path_6" data-name="Path 6" d="M689.236,124.857c-1.274-.181-2.575-.17-3.641-.965a4.758,4.758,0,0,1-1.865-5.516c2.128-5.832,4.347-7.7,10.718-7.962a21.658,21.658,0,0,1,6.615.379,6.631,6.631,0,0,1,5.154,6.434,35.585,35.585,0,0,1-11.174,26.628,26.286,26.286,0,0,1-15.483,7.522c-4.887.608-9.434.332-13.762-2.021-3.974-2.161-6.1-5.682-6.963-10.011-1.431-7.205.581-14.011,2.58-20.794A88.909,88.909,0,0,1,672.69,93.54c5.319-7.866,12.615-11.919,22.184-11.892,4.568.012,9.084.13,13.261,2.255,4.354,2.214,5.953,5.543,5.542,10.937a13.742,13.742,0,0,1-4.325,9.585c-2.787,2.576-8.678,3.339-11.554,1.733-2.215-1.237-2.97-2.985-2.24-5.355a7.254,7.254,0,0,1,.241-.792c.568-1.294.965-2.969.113-3.86-1.025-1.072-2.9-.818-4.326-.409a7.493,7.493,0,0,0-4.151,3.019c-3.322,4.713-5.118,10.121-7.232,15.368a87.307,87.307,0,0,0-4.2,13.587,14.278,14.278,0,0,0-.633,3.527c.139,3.525,2.468,5.4,6.284,3.979,3.465-1.286,5.24-4.168,6.67-7.31a22.657,22.657,0,0,0,.908-3.055" fill="#fff"/>
    <path id="Path_7" data-name="Path 7" d="M644.18,107.218c3.541.479,6.961-.472,10.281.55,3.421,1.053,4.006,2.843,3.581,6.352-.891,7.342-9.4,10.332-15.52,8.983-1.035-.228-2.119-.012-3.146-.5-.6-.288-.859.091-1.058.842-.716,2.693-1.64,5.331-2.479,7.993-.34,1.077.257,1.367,1.115,1.1,3.5-1.084,7.087-.812,10.658-.833,3.544-.021,6.8,1.982,7.2,4.773a10.62,10.62,0,0,1-2.524,8.909c-3.061,3.429-7.054,4.913-11.455,5.766-6,1.163-11.652.772-16.775-2.922a12.3,12.3,0,0,1-5.24-9.688c-.508-9.345,2.353-18.088,5.387-26.718a107.2,107.2,0,0,1,7.733-17.264c2.921-5.163,6.4-9.937,12.484-11.761a33.517,33.517,0,0,1,18.492-.682c2.766.731,5.3,2.1,5.842,5.087a8.538,8.538,0,0,1-3.836,9.295,17.842,17.842,0,0,1-8.757,2.547,43.873,43.873,0,0,1-5.869,0c-1.662-.092-2.73.214-3.4,2.037-.762,2.083-1.976,4.007-2.713,6.132" fill="#fff"/>
    <path id="Path_8" data-name="Path 8" d="M597.284,151.278a12.293,12.293,0,0,1-8.171-1.954c-3.525-2.413-4.791-6.337-4.354-10.623,1.04-10.2,4.73-19.6,8.513-28.911,3.192-7.861,6.674-15.657,11.53-22.725,3.6-5.239,8.4-5.6,13.553-4.653,3.532.646,3.981,4.158,3.263,7.431-1.3,5.916-3.742,11.429-6.263,16.895-3.732,8.093-7.556,16.144-11.349,24.208-.2.415-.733.7-.172,1.274.505.516.84.061,1.291.005a18.4,18.4,0,0,1,7.446.5c3.565,1.05,4.757,4.159,3.423,8.435-1.835,5.882-6.4,8.4-11.983,9.7a30.16,30.16,0,0,1-6.727.418" fill="#fff"/>
    <path id="Path_9" data-name="Path 9" d="M744.533,99.38c-.316,4.307-1.794,8.349-3.113,12.4a180.955,180.955,0,0,1-6.7,17.627,17.593,17.593,0,0,1-3.146,5.008,4.544,4.544,0,0,1-5.188.995c-1.663-.674-1.675-2.709-1.425-4.376a19.619,19.619,0,0,1,.466-2.493,190.024,190.024,0,0,1,8.157-23.28,55.159,55.159,0,0,1,3.554-7.141,5.386,5.386,0,0,1,6.277-1.99c1.4.681,1.087,2.036,1.113,3.253" fill="#010101"/>
    <path id="Path_10" data-name="Path 10" d="M1058.046,287.229c-8.437,0-13.008-3.687-15.357-6.78a16.515,16.515,0,0,1-2.549-14.754l7.051-26.016a29.185,29.185,0,0,1,10.914-15.947c5.677-4.4,11.674-6.629,17.828-6.629,9.958,0,21.586,6.359,21.586,24.282a53.424,53.424,0,0,1-2.191,14.338c-3.56,13.3-8.479,21.714-15.479,26.475-4.97,3.419-11.918,5.031-21.8,5.031m8.151-14.461-.021.082c.006-.027.014-.054.021-.082" fill="#feec00"/>
    <path id="Path_11" data-name="Path 11" d="M941.3,386.865H929.053c-24.585,0-39.178-10.611-47.09-19.514q-1.1-1.23-2.113-2.52a55.583,55.583,0,0,1-11.314,10.76,56.706,56.706,0,0,1-33.488,11.03c-13.2,0-24.306-3.9-33-11.608q-.891-.789-1.734-1.622-1.25,1.023-2.564,1.985c-10.41,7.622-21.852,11.489-34,11.489-11.4,0-21.7-3.462-29.788-9.792a56.183,56.183,0,0,1-31.31,9.548,51.478,51.478,0,0,1-23.955-5.417,56.828,56.828,0,0,1-24.45,5.417H629.662c-22.427,0-36.547-8.8-44.864-17.063a74.45,74.45,0,0,1-47.67,17.307H498.412a46.893,46.893,0,0,1-33.359-13.239c-.163-.157-.324-.316-.483-.475q-1.536,1.27-3.172,2.44a56.706,56.706,0,0,1-33.489,11.03c-13.2,0-24.306-3.9-33-11.608q-.609-.541-1.2-1.1a55.039,55.039,0,0,1-36.138,12.956H345.319a70.379,70.379,0,0,1-26.223-4.693,56.039,56.039,0,0,1-22.784,4.693,48.327,48.327,0,0,1-22.5-5.342,56.9,56.9,0,0,1-23.753,5.1h-24.58c-24.546,0-39.141-10.534-47.067-19.384a55.772,55.772,0,0,1-9.3,8.354,56.709,56.709,0,0,1-33.489,11.03c-13.2,0-24.306-3.9-33-11.608-9.6-8.5-14.883-20.8-14.883-34.634a55.891,55.891,0,0,1,1.736-13.517l.166-.636,20.195-74.711c-8.7-8.381-13.52-20.172-13.52-33.654,0-14.043,5.36-27.4,15.5-38.626a55.211,55.211,0,0,1,42.013-18.642h49.008c11.176,0,21.193,3.078,29.174,8.832a79.1,79.1,0,0,1,36.416-8.587h24.557a51.712,51.712,0,0,1,22.457,4.861,56.813,56.813,0,0,1,23.745-5.106c17.526,0,23.864.781,28.1,1.625l.136.027a61.64,61.64,0,0,1,10.12,2.973,54.155,54.155,0,0,1,21.92-4.625,49.852,49.852,0,0,1,22.571,5.272,56.61,56.61,0,0,1,24.071-5.272h49.008a51.45,51.45,0,0,1,22.923,5.1,56.1,56.1,0,0,1,23-4.851c11.785,0,21.9,3.1,30.125,9.22a56.556,56.556,0,0,1,31.218-9.22c11.961,0,22.7,3.578,30.96,10.1a78.8,78.8,0,0,1,39.262-10.1H697.17a51.142,51.142,0,0,1,23.73,5.49,55.2,55.2,0,0,1,24.549-5.735,47.9,47.9,0,0,1,29.683,9.7,56.162,56.162,0,0,1,31.336-9.451,52,52,0,0,1,22.951,4.916,56.657,56.657,0,0,1,23.834-5.161H902.26a51.6,51.6,0,0,1,22.565,4.923,56.129,56.129,0,0,1,22.606-4.678c11.432,0,21.763,3.261,29.874,9.223a56.572,56.572,0,0,1,31.224-9.223c10.862,0,20.692,2.907,28.606,8.342a94.857,94.857,0,0,1,33.943-8.5l1.685-.087h19.1c18.557,0,33.772,5.408,45.283,16.084a79.329,79.329,0,0,1,48.054-15.839h24.558c27.965,0,47.5,19.08,47.5,46.4,0,14.039-5.385,27.387-15.574,38.6q-2.007,2.208-4.186,4.171a49.833,49.833,0,0,1,3.342,18.332c0,14.044-5.361,27.4-15.5,38.628a59.927,59.927,0,0,1-4.252,4.257,49.677,49.677,0,0,1,3.337,18.285c0,14.058-5.4,27.418-15.627,38.634a55.4,55.4,0,0,1-41.963,18.478h-24.58c-16.086,0-27.883-4.555-36.283-10.1a56.7,56.7,0,0,1-32.238,10.1c-11.873,0-22.051-3.147-30.307-9.362a56.179,56.179,0,0,1-31.033,9.362c-12.345,0-22.856-3.417-31.279-10.162a79.963,79.963,0,0,1-39.8,10.406M280.262,324.981l-.219.36a26.91,26.91,0,0,0-4.2,14.276,22.6,22.6,0,0,0,.483,4.689l.129-.215a28.088,28.088,0,0,0,4.2-14.582,25.386,25.386,0,0,0-.392-4.528M684.7,326.83l-1.763,6.571a23.325,23.325,0,0,0-1.161,6.978c0,.532.015,1.053.045,1.566a27.573,27.573,0,0,0,3.009-12.436q0-1.377-.13-2.679m149.528,14.477h0Zm-70.588-.447Zm156.63-62.365c-4.727,17.852-7.125,31.913-7.125,41.791,0,18.106,7.2,19.58,15.9,19.58H941.3c9.579,0,17.387-3.266,24.319-10.225q.276-1.395.62-2.767l.146-.565,4.457-16.616q-1.368,2.814-2.757,5.065c-6.366,10.814-14.9,14.113-20.953,14.973l-2.137.3-2.127-.378c-8.7-1.549-18.008-8.688-18.008-24.081,0-7.526,1.884-18.407,5.93-34.243l.049-.184c2.808-10.38,4.961-18.258,6.4-23.418q1.117-4.016,1.711-6.025c.24-.817.43-1.429.563-1.838q.09-.276.187-.541l.346-1.278a65.268,65.268,0,0,1-6.008,7.619,58.6,58.6,0,0,1-6.27,5.92ZM763.379,339.859c.112,0,.234.007.368.007a10.633,10.633,0,0,0,6.24-2.415,10.046,10.046,0,0,0,3.995-5.918l25.376-94.7a49.071,49.071,0,0,1-3.617-18.508l-10.345,38.6-.167.478a14.879,14.879,0,0,1-9.546,9.313,14.339,14.339,0,0,1-4.456.713,14.158,14.158,0,0,1-13.8-10.988l-.045-.186L745.857,207.6a8.758,8.758,0,0,0-1.19.033c-.1,13.9-5.48,27.1-15.573,38.2q-1.413,1.555-2.95,3.018l-.7,2.627a50.039,50.039,0,0,1,2.8,16.859c0,14.044-5.361,27.4-15.5,38.627q-1.363,1.509-2.847,2.937l-.8,3a49.892,49.892,0,0,1,2.73,16.608q0,2.334-.2,4.636a13.522,13.522,0,0,0,1.146-2.837l10.759-39.5a14.358,14.358,0,0,1,9.136-10.757,14.012,14.012,0,0,1,19.235,10.28Zm-265.431-.013c.12.011.273.02.464.02h38.716c4.175,0,16.481,0,29.54-20.181a140.11,140.11,0,0,1,1.27-17.411c-4,10.465-7.277,15.261-9.692,18.12-5.666,6.63-14.238,9.961-25.529,9.961-8.034,0-12.557-3.493-14.936-6.424a17.022,17.022,0,0,1-3.23-14.52l.165-.7,19.213-72.229a64.458,64.458,0,0,1-7.026,9.184,58.948,58.948,0,0,1-5.368,5.173l-23.423,88.024a3.36,3.36,0,0,0-.167.781c0,.073,0,.139,0,.2M320.041,327.835c.578,0,1.165.027,1.742.079l7.287.657,3.427,6.463c.7,1.321,2.563,4.832,12.822,4.832h12.252a8.7,8.7,0,0,0,7.134-3.145c2.691-2.979,3.268-5.141,3.363-6.6q-.21-.006-.45-.006l-1.036-.04c-16.254-1.251-22.021-12.521-22.021-21.792a29.6,29.6,0,0,1,.9-7.211c1.111-4.453,2.148-8.921,3.077-13.259l.169-.7c2.649-9.787,5.586-16.522,9.239-21.183l31.194-40.478a53.168,53.168,0,0,1-.537-7.588q0-1.209.053-2.41a19.061,19.061,0,0,1-11.924,4.173c-.588,0-1.185-.027-1.775-.082l-7.283-.671-3.416-6.468c-.871-1.65-2.226-3.29-6.205-4.1-.518-.1-4.061-.67-17.563-.7a53.729,53.729,0,0,1-1.313,11.51c8.135,3.314,13.029,10.467,13.029,19.845a29.846,29.846,0,0,1-.888,7.181c-1.1,4.406-2.137,8.882-3.086,13.321l-.17.7c-2.652,9.8-5.585,16.542-9.226,21.2l-31.64,41.139a53.073,53.073,0,0,1,.46,7.017q0,1.473-.078,2.933a19.14,19.14,0,0,1,12.465-4.607M497.6,339.787Zm633.32-3.174c1.871,1.592,5.162,3.008,11.325,3.008h24.58a8.844,8.844,0,0,0,7.23-3.142c2.611-2.865,3.22-4.942,3.335-6.362-.137,0-.285-.006-.442-.006H1164.7c-7.232,0-11.9-.8-15.617-2.663-4.223-2.107-11.361-7.646-11.361-20.884a71.807,71.807,0,0,1,1.751-14.251l.156-.753q-2.4,4.455-5.21,8.808c.168,2.2.253,4.431.253,6.686a129.985,129.985,0,0,1-3.748,29.559m-58.1,2.985c.266.014.566.023.905.023a10.406,10.406,0,0,0,6.283-2.292q.378-.27.716-.563a90.312,90.312,0,0,1-1.474-16.622c0-14.3,2.939-32.3,8.985-55.025l.065-.245c5.714-20.846,11.916-37.681,18.88-51.22-1.952-3.364-5.915-6.061-15.322-6.061h-17.872a46.417,46.417,0,0,0-18.106,4.756,58.964,58.964,0,0,1-1.458,8.239l-.128.5L1046.16,251.6c-.636,2.7-2.368,9.3-8.559,32.078q-2.878,10.858-6.032,20.368c3.3-4.032,8.64-7.056,16.461-7.056,7.787,0,12.539.729,16.261,2.508,3.756,1.74,11.666,6.989,11.666,20.3,0,4.738-.944,10.748-2.883,18.372a13.7,13.7,0,0,0-.251,1.43m-238.6,0c.244.013.517.02.821.02a10.172,10.172,0,0,0,6.171-2.276,9.217,9.217,0,0,0,3.661-5.745l.049-.188,26.888-99.482c1.544-6.457,6.613-13.172,16.415-14.565l2.563-9.772H854.341a49.388,49.388,0,0,1-1.6,11.755,16.424,16.424,0,0,1,5.69,4.508,16.656,16.656,0,0,1,3.107,14.318l-.15.607-26.92,99.592a12.4,12.4,0,0,0-.241,1.228m-219.5-9.606c1.81,7.112,5.981,9.626,14.939,9.626h24.582c.184,0,.365,0,.543-.01a48.756,48.756,0,0,1,1.12-9.5h-3.792c-7.233,0-11.9-.8-15.618-2.663-4.223-2.108-11.36-7.647-11.36-20.884q0-.993.05-2.054a212.69,212.69,0,0,1-10.464,25.485M427.089,339.6q.365.02.82.02a10.172,10.172,0,0,0,6.171-2.276,9.221,9.221,0,0,0,3.663-5.747l.049-.186,26.887-99.485c1.583-6.616,6.869-13.5,17.152-14.656l2.575-9.678H448.163c0,.074,0,.148,0,.222a50.764,50.764,0,0,1-1.464,12.114,16.358,16.358,0,0,1,4.594,3.927,16.659,16.659,0,0,1,3.1,14.32l-.149.605-26.918,99.584c-.123.507-.2.918-.242,1.236m-210.2-62.364c-4.908,18.457-7.4,32.893-7.4,42.907,0,18.011,7.244,19.477,16,19.477h23.361v0a52.667,52.667,0,0,1,.86-9.506h-1.769c-7.232,0-11.9-.8-15.617-2.663-4.224-2.107-11.36-7.647-11.36-20.884a71.8,71.8,0,0,1,1.749-14.251l.359-1.734.58-1.157c2.249-6.041,7.845-10.18,14.824-10.767l1.133-.048h26.954a8.7,8.7,0,0,0,7.135-3.145c2.689-2.978,3.266-5.14,3.361-6.6q-.21-.006-.45-.006H248.558l-.6-.054a15.517,15.517,0,0,1-12-6.877,15.277,15.277,0,0,1-1.569-13.286l.305-.914.213-.428q.535-1.64,1.091-3.175-.674.782-1.376,1.551a57.839,57.839,0,0,1-10.773,9.235c-2.4,6.717-4.739,14.207-6.967,22.333M134.81,339.6c.244.013.517.02.821.02a10.174,10.174,0,0,0,6.171-2.276,9.225,9.225,0,0,0,3.663-5.747l.048-.186L172.4,231.926A18.906,18.906,0,0,1,188.553,217.4q2.513-5.217,5.153-9.811h-39.87a8.7,8.7,0,0,0-7.134,3.144c-2.69,2.979-3.267,5.141-3.362,6.6.141,0,.292.006.454.006,8.262,0,12.838,3.54,15.221,6.509a16.653,16.653,0,0,1,3.1,14.319l-.149.605-26.919,99.586c-.123.506-.2.916-.242,1.234m890.18-17.9a169.491,169.491,0,0,1-8.012,16.643,15.886,15.886,0,0,0,1.569-.995,9.238,9.238,0,0,0,3.668-5.754l.084-.315Zm-625.983-2.2,2.973,9.177,23.248-86a26.038,26.038,0,0,1-2.971-1.219l-8.274-4.013L379.2,282.581c-.2.253-1.993,2.69-4.337,11.248-.68,3.16-1.412,6.38-2.188,9.62,12.665,1.754,20.987,10.212,22.247,22.754Zm70.633-2.447,3.451,10.867L495.8,242.552a37,37,0,0,1-6.377,1.3Zm336.439-.873,3.328,11.431,22.957-84.929q-.771-.261-1.511-.565l-4.467-1.831-20.366,76Zm301.5-12.555a117.27,117.27,0,0,0-1.324,16.516q0,1.116.032,2.2a92.22,92.22,0,0,0,1.387-15.294c0-1.157-.032-2.3-.095-3.426m-87.138-74.6-.051.189-24.454,91.165c5.733-11.482,10.876-25.927,15.591-43.712,5.293-19.482,7.794-28.847,8.384-31.4l.108-.436,8.213-30.8a32.448,32.448,0,0,0,.716-3.763,61.506,61.506,0,0,0-8.507,18.751M272.206,305.2a25.31,25.31,0,0,1,2.618,1.2l7.591,4.02,35.149-45.7c.2-.252,1.988-2.686,4.342-11.282.69-3.218,1.424-6.452,2.191-9.662a28.367,28.367,0,0,1-9.626-2.985l-8.388-4.462-1.979,1.414a34.927,34.927,0,0,1-15.555,6.215c9.7,3.811,15.522,12.558,15.522,24.379,0,9.137-3.479,17.622-10.342,25.22A35.534,35.534,0,0,1,272.206,305.2m329.546-33.17-.007.026c-4.014,15.091-6.505,27.615-7.533,37.933a245.122,245.122,0,0,0,11.174-33.313c5.293-19.485,7.8-28.854,8.384-31.4l.109-.434,5.348-20.056c-6.316,11.956-12.075,27.541-17.469,47.224ZM676.393,305.2a25.19,25.19,0,0,1,3.208,1.523l2.788,1.577,1.324-4.971a35.725,35.725,0,0,1-7.32,1.871m275.559,1.618Zm-770.023-6.661,1.525,5.717a270.542,270.542,0,0,1,7.348-35.615l.026-.1c2.661-9.708,5.489-18.644,8.42-26.607q-1.04.177-2.1.3Zm705.83-23.73,1.712,15.194q1.844-9.255,4.725-20.125l.045-.166,7.962-28.567a37.138,37.138,0,0,1-5.639,1.086Zm226.592-4.448-.009.037q-2.195,8.252-3.787,15.5a93.52,93.52,0,0,0,12.808-27.241l.039-.143,3.192-12.268a79.785,79.785,0,0,0,3.089-18.837c-5.5,11.343-10.545,25.5-15.332,42.956m37.105-12.454-2.073,7.957a113.749,113.749,0,0,1-6.456,17.495,17.413,17.413,0,0,1,12.31-6.322l1.132-.048h26.953a8.7,8.7,0,0,0,7.135-3.145c2.689-2.978,3.267-5.14,3.362-6.6q-.21-.006-.45-.006h-28.048l-.6-.054a15.518,15.518,0,0,1-12-6.879,14.6,14.6,0,0,1-1.268-2.394m-450.376,5.75-5.217,19.608a29.15,29.15,0,0,0,5.387-16.544,26.944,26.944,0,0,0-.17-3.064m-62.721-7.185c-1.251,4.734-3.337,12.486-6.9,25.6l-.012.046a17.647,17.647,0,0,1,11.2-5.076l1.133-.048h25.811l2.6-9.755H652.736l-.6-.054a15.52,15.52,0,0,1-12-6.879,14.635,14.635,0,0,1-1.779-3.829m44.555,10.975h0m-104.041-3.3,9.865,2.674-9.857-2.7Zm-301.9,1.4ZM692.8,243.944a25.333,25.333,0,0,1,3.008,1.415l2.9,1.6,1.285-4.832a35.863,35.863,0,0,1-7.188,1.813m463.84-21.076c.054,1.274.08,2.548.08,3.815q0,4.522-.449,9.166c3.048-6.058,6.54-10.4,10.66-13.318l.161-.112c4.963-3.412,11.713-5.071,20.636-5.071h12.007a8.754,8.754,0,0,0,7.161-3.125c2.607-2.869,3.214-4.953,3.329-6.378-.147-.005-.3-.007-.474-.007H1185.2c-11.424,0-20.572,4.795-28.553,15.03m-507.666-5.427q-.3,1.6-.7,3.16l-.137.529-3.386,12.7a33.166,33.166,0,0,1,9.589-11.3l.163-.114c4.963-3.412,11.713-5.07,20.636-5.07H685.89l2.531-9.51H672.613a32.542,32.542,0,0,0-23.634,9.6M222.76,212.357q-.723.977-1.414,1.971a110.82,110.82,0,0,0-8.6,15.086q1.013-.932,1.962-1.97a32.067,32.067,0,0,0,8.057-15.087m695.117-1.593-4.611,17.578c.289-.293.575-.592.854-.9,5.631-6.156,8.607-13.229,8.607-20.452a24.9,24.9,0,0,0-.6-5.521l-.675,1.1a32.6,32.6,0,0,0-3.557,8.117Zm-406.372-.014-.018.069-4.389,16.5c5.555-6.126,8.491-13.15,8.491-20.325a25.619,25.619,0,0,0-.4-4.6l-.23.38a32.7,32.7,0,0,0-3.435,7.917Zm-261.562,2.558a54.112,54.112,0,0,1-2.7,11.639,26.4,26.4,0,0,1,2.928-2.417l.158-.11c4.962-3.413,11.713-5.072,20.637-5.072h10.712a54.077,54.077,0,0,1,.9-9.51H268.434a32.369,32.369,0,0,0-18.491,5.47m577.089-10.282-.071.119a28.4,28.4,0,0,0-4.222,14.716,24.376,24.376,0,0,0,.75,6.191l2.688-9.98a23.423,23.423,0,0,0,1.167-6.992,25.542,25.542,0,0,0-.312-4.054m-111.44,7.7-.019.068-3.518,13.225a29.007,29.007,0,0,0,5.613-16.78q0-.876-.056-1.736a32.761,32.761,0,0,0-1.992,5.128Zm-295.223-8.509-.635,1.074a28.381,28.381,0,0,0-4.133,14.572,25.21,25.21,0,0,0,.523,5.212l.584-.932a26.519,26.519,0,0,0,4.456-14.326,19.9,19.9,0,0,0-.8-5.6m-107.269.517-.182.3a28.17,28.17,0,0,0-4.238,14.67,25.068,25.068,0,0,0,.4,4.483l.168-.278a28.164,28.164,0,0,0,4.243-14.672,25.494,25.494,0,0,0-.389-4.505m283.257,7.018a10.333,10.333,0,0,0-4.025,6.113L592.3,216q-.749,2.813-1.446,5.433,2.911-6.434,6-12.007c-.166.1-.332.211-.5.324" fill="#feec00"/>
    <path id="Path_12" data-name="Path 12" d="M1075.933,230.6q-4.657,0-9.557,3.8a15.958,15.958,0,0,0-6.126,8.7l-7.1,26.219q-1.228,4.41,4.9,4.41,10.293,0,14.212-2.7,6.123-4.164,10.047-18.868a40.739,40.739,0,0,0,1.715-10.781q0-10.78-8.086-10.782"/>
    <path id="Path_13" data-name="Path 13" d="M1209.755,174.338H1185.2c-19.094,0-36,7.44-49.545,21.656a43.56,43.56,0,0,0-5.859-7.621c-9.119-9.475-21.881-14.279-37.933-14.279h-19.1l-.717.051c-14.241,1.025-26.558,4.875-36.712,11.447-6-7.1-15.345-11.254-26.806-11.254a43.464,43.464,0,0,0-25.338,8.032l-.175.122-.172.126a44.778,44.778,0,0,0-6.463,5.749c-5.8-8.789-16.037-14.029-28.95-14.029a43.125,43.125,0,0,0-23.093,6.651c-5.731-4.411-13.278-6.9-22.079-6.9H853.252a42.083,42.083,0,0,0-24.135,7.3c-5.963-4.683-13.57-7.06-22.65-7.06a43.118,43.118,0,0,0-25.095,8.028l-.173.121-.171.125a45.471,45.471,0,0,0-7,6.308c-5.861-9.358-16.055-14.826-28.582-14.826a43.263,43.263,0,0,0-24.98,8.116c-5.864-5.02-13.861-7.872-23.3-7.872H672.613a65.785,65.785,0,0,0-41.28,14.141c-5.771-8.853-16.009-14.141-28.942-14.141a43.46,43.46,0,0,0-25.338,8.032l-.174.122-.172.125a44.771,44.771,0,0,0-6.47,5.756,29.8,29.8,0,0,0-5.147-5.885c-6.156-5.408-14.245-8.15-24.042-8.15a43.157,43.157,0,0,0-23.512,6.914c-5.771-4.576-13.441-7.158-22.415-7.158H446.114a42.063,42.063,0,0,0-24.385,7.477,35.74,35.74,0,0,0-22.257-7.477,40.345,40.345,0,0,0-21.569,6.181,45.471,45.471,0,0,0-13.138-4.8l-.052-.01-.052-.011c-3.39-.675-9.067-1.364-25.468-1.364a42.2,42.2,0,0,0-24.022,7.2c-5.746-4.451-13.33-6.957-22.18-6.957H268.434a65.689,65.689,0,0,0-38.243,11.9c-5.929-7.649-15.5-12.149-27.348-12.149H153.836a42.045,42.045,0,0,0-31.995,14.19c-7.862,8.705-12.018,18.933-12.018,29.578,0,12.839,5.78,22.937,15.417,28.424L102.674,329.77l-.049.183-.046.184a42.369,42.369,0,0,0-1.333,10.242c0,12.707,5.62,20.352,10.334,24.528,6.154,5.451,14.245,8.214,24.051,8.214a43.465,43.465,0,0,0,25.639-8.514,42.9,42.9,0,0,0,16.614-24.572l.357-1.319a46.881,46.881,0,0,0,10.214,19.495c6.084,6.8,17.447,14.91,37.029,14.91h24.58a42.309,42.309,0,0,0,24.3-7.366,33.588,33.588,0,0,0,21.946,7.611,42.321,42.321,0,0,0,22.507-6.265q1.172.664,2.395,1.258c6.848,3.323,14.959,5.007,24.105,5.007h12.252a42.049,42.049,0,0,0,31.994-14.189,50.7,50.7,0,0,0,5.656-7.559,29.925,29.925,0,0,0,8.638,13.289c6.153,5.451,14.245,8.214,24.05,8.214a43.468,43.468,0,0,0,25.64-8.514,42.016,42.016,0,0,0,12.526-14.165,32.193,32.193,0,0,0,8.38,13.5,33.665,33.665,0,0,0,23.957,9.427h38.715c13.17,0,32.145-4.306,49.292-24.213a43.749,43.749,0,0,0,6.215,9.058c6.084,6.8,17.447,14.91,37.028,14.91h24.582a42.259,42.259,0,0,0,24.891-7.771c6.084,5.152,13.987,7.771,23.514,7.771a43.4,43.4,0,0,0,25.651-8.534,42.8,42.8,0,0,0,6.855-6.112c5.844,9.4,16.045,14.891,28.591,14.891A45.323,45.323,0,0,0,802.069,350.7,29.954,29.954,0,0,0,811,364.907c6.153,5.451,14.245,8.214,24.05,8.214a43.468,43.468,0,0,0,25.64-8.514A42.9,42.9,0,0,0,877.3,340.036l2.853-10.556c1.329,11.792,5.31,21.491,11.9,28.9,6.075,6.834,17.427,14.982,37,14.982H941.3a65.731,65.731,0,0,0,41.817-14.529,29.784,29.784,0,0,0,5.216,6.066c6.153,5.453,14.244,8.218,24.05,8.218a43.43,43.43,0,0,0,25.651-8.528,42.149,42.149,0,0,0,6.416-5.649,29.815,29.815,0,0,0,5.2,6c6.16,5.429,14.257,8.181,24.069,8.181a43.719,43.719,0,0,0,25.654-8.461,42.324,42.324,0,0,0,6.519-5.719c6.233,6.639,17.459,14.18,36.347,14.18h24.581a42.224,42.224,0,0,0,31.985-14.071c7.919-8.689,12.1-18.9,12.1-29.54,0-8.906-2.8-16.49-7.74-22.123a43.274,43.274,0,0,0,12.138-9.469c7.863-8.7,12.019-18.933,12.019-29.579,0-8.934-2.8-16.542-7.748-22.191a43.254,43.254,0,0,0,12.1-9.39c7.894-8.688,12.064-18.894,12.064-29.521,0-19.678-13.662-32.9-34-32.9M185.5,235.206l-26.954,99.729a22.77,22.77,0,0,1-8.9,13.4,23.766,23.766,0,0,1-14.016,4.79q-14.386,0-14.385-12.742a22.4,22.4,0,0,1,.735-5.391l26.958-99.729q.977-4.41-5.146-4.411-13.973,0-13.97-12.986,0-8.575,6.861-16.173a22.157,22.157,0,0,1,17.152-7.6h49.007q9.434,0,12.487,5.892-2.633,3.14-5.074,6.643a135.223,135.223,0,0,0-12.669,23.506,25.377,25.377,0,0,1-4.94.468q-6.162,0-7.148,4.6m81.059,56.9H239.6q-2.94.248-3.43,2.451l-.245.49a59.529,59.529,0,0,0-1.471,11.516q0,6.864,3.921,8.821,2.446,1.23,9.557,1.226h12.251a17.682,17.682,0,0,1,8.318,1.721,40.517,40.517,0,0,0-6.16,21.285,35.643,35.643,0,0,0,1.212,9.3,22.352,22.352,0,0,1-13.493,4.205h-24.58q-29.5,0-29.5-32.976,0-16.857,7.86-46.415,4.3-15.7,8.992-27.976a43.425,43.425,0,0,0,11.824-9.2c7.946-8.687,12.146-18.91,12.146-29.565,0-.177-.009-.35-.011-.526a46.034,46.034,0,0,1,31.635-12.128h24.557a17.738,17.738,0,0,1,8.362,1.733,41.663,41.663,0,0,0-6.173,21.634,37.948,37.948,0,0,0,1.076,9.056,22.256,22.256,0,0,1-13.281,4.087H270.969q-9.069,0-12.987,2.7-5.881,4.168-10.537,18.868l-.245.49q-.735,2.205,1.961,2.45H276.6q13.967,0,13.967,12.987,0,8.58-6.861,16.172a22.15,22.15,0,0,1-17.152,7.6M402.1,217.862a37.453,37.453,0,0,0,1.55,10.872L368.6,274.22q-3.676,4.658-6.861,16.417-1.471,6.864-3.186,13.722a16.025,16.025,0,0,0-.49,3.92q0,7.6,9.557,8.332,13.966,0,13.966,12.987,0,8.58-6.86,16.172a22.154,22.154,0,0,1-17.153,7.6H345.319q-18.378,0-24.748-12.006c-.179-.016-.355-.024-.531-.024a6.067,6.067,0,0,0-4.37,1.984q-7.845,10.05-19.358,10.046a14.23,14.23,0,0,1-8.276-2.334,41.579,41.579,0,0,0,6.118-21.522,37.468,37.468,0,0,0-1.41-10.374l35.423-46.057q3.675-4.664,6.861-16.448,1.47-6.875,3.185-13.753a16.252,16.252,0,0,0,.491-3.928q0-7.857-9.557-8.347a17.666,17.666,0,0,1-8.336-1.729,41.66,41.66,0,0,0,6.178-21.637,38.028,38.028,0,0,0-1.063-9.066,22.254,22.254,0,0,1,13.267-4.077q16.66,0,21.563.979,10.78,2.207,15.438,11.027c.18.016.359.025.536.025a6.07,6.07,0,0,0,4.364-1.985q7.841-10.046,18.378-10.046a16.052,16.052,0,0,1,8.639,2.329,41.884,41.884,0,0,0-6.01,21.439m75.676,17.344-26.953,99.729a22.774,22.774,0,0,1-8.9,13.4,23.768,23.768,0,0,1-14.017,4.79q-14.387,0-14.385-12.742a22.352,22.352,0,0,1,.736-5.391l26.957-99.729q.977-4.41-5.145-4.411a18.1,18.1,0,0,1-7.924-1.538,40.093,40.093,0,0,0,6.516-21.495,33.341,33.341,0,0,0-1.477-9.853,22.2,22.2,0,0,1,12.927-3.868h49.007a17.738,17.738,0,0,1,8.279,1.7,46.063,46.063,0,0,0-4.859,11.189l-.049.172-.046.173-5.877,22.089a24.118,24.118,0,0,1-7.643,1.185q-6.164,0-7.149,4.6m110.961,33.238-.02.072-.019.073c-5.742,21.584-8.533,38.449-8.533,51.556,0,1.105.025,2.191.065,3.266q-17.672,29.943-43.1,29.955H498.412a13.824,13.824,0,0,1-10.047-3.8,13.187,13.187,0,0,1-3.92-9.924,16.212,16.212,0,0,1,.735-4.655l24.478-92.011a44.569,44.569,0,0,0,7.284-6.421c7.946-8.687,12.146-18.91,12.146-29.565a38.224,38.224,0,0,0-.978-8.745,23.469,23.469,0,0,1,12.938-3.909q14.454,0,14.457,12.7a14.3,14.3,0,0,1-1.2,5.375l-26.54,99.772q-.983,4.674,4.954,4.671,10.8,0,15.215-5.173,6.868-8.132,14.48-36.962l8.538-31.062q.729-2.692,8.3-31.13a23.7,23.7,0,0,1,23.141-18.191q12.338,0,13.9,9.721c-.627.842-1.248,1.694-1.856,2.57-9.748,14.064-18.151,34.28-25.7,61.815m91.783,21.6a22.916,22.916,0,0,1-9.785,2.066H643.783q-2.94.248-3.431,2.451l-.245.49a59.6,59.6,0,0,0-1.47,11.516q0,6.864,3.921,8.821,2.445,1.23,9.557,1.226h12.252a17.355,17.355,0,0,1,8.59,1.864l-2.89,10.863a36.754,36.754,0,0,0-1.787,11.041,38.119,38.119,0,0,0,.733,7.532,22.228,22.228,0,0,1-14.769,5.21H629.662q-25.793,0-29.03-25.218c6.863-12.966,12.75-28.758,17.8-47.757,6.308-23.216,7.96-29.53,8.49-31.824l8.186-30.693.04-.151.038-.151a45.04,45.04,0,0,0,1.089-6.148q15.033-16.818,36.338-16.841h24.556q6.262,0,9.716,2.589a46.126,46.126,0,0,0-4.214,9.882l-.076.259-.07.261L696.8,228.863a23.088,23.088,0,0,1-9.643,1.985H675.148q-9.07,0-12.988,2.7-5.88,4.168-10.536,18.868l-.246.49q-.735,2.205,1.961,2.45h27.444a17.412,17.412,0,0,1,8.484,1.814Zm133.184-54.587-26.672,99.535a23.516,23.516,0,0,1-9.071,13.354,23.769,23.769,0,0,1-14.216,5.023q-11.278,0-13.48-10.292l-11.52-48.761q-.177-.874-.6-.875a.712.712,0,0,0-.379.139q-.981.248-.98.977l-11,40.373a24.556,24.556,0,0,1-23.139,18.194c-4.361,0-7.718-.89-10.093-2.65a41.477,41.477,0,0,0,5.777-20.961,35.214,35.214,0,0,0-3.448-15.667l3.008-11.309a45.334,45.334,0,0,0,4.838-4.618c7.862-8.7,12.018-18.931,12.018-29.577a35.308,35.308,0,0,0-3.534-15.883l2.931-11.014a45.257,45.257,0,0,0,4.958-4.686c7.893-8.684,12.063-18.891,12.063-29.519a38.7,38.7,0,0,0-.723-7.528c.25-.2.487-.4.747-.593a23.905,23.905,0,0,1,14.258-5.022q11.3,0,13.519,10.291l11.551,48.762q.2.784.708.785a.869.869,0,0,0,.276-.05,1.44,1.44,0,0,0,.985-.938l10.831-40.415a24.963,24.963,0,0,1,9.5-13.765,23.382,23.382,0,0,1,13.645-4.426,18.37,18.37,0,0,1,8.906,1.881,41.915,41.915,0,0,0-6.134,21.643,34.623,34.623,0,0,0,4.466,17.592m78.359-4.851q-6.164,0-7.149,4.6l-26.954,99.729a22.768,22.768,0,0,1-8.9,13.4,23.769,23.769,0,0,1-14.017,4.79q-14.387,0-14.384-12.742a22.4,22.4,0,0,1,.735-5.391l26.958-99.729q.975-4.41-5.147-4.411a19.081,19.081,0,0,1-7.237-1.22l3.081-11.5a36.856,36.856,0,0,0,1.79-11.048,37.529,37.529,0,0,0-1-8.783,22.141,22.141,0,0,1,13.408-4.2h49.007a18.513,18.513,0,0,1,7.69,1.416,46.049,46.049,0,0,0-5.033,11.474l-.058.206-.055.207-5.837,22.252a24.425,24.425,0,0,1-6.9.954m87.365,99.2-.045.169-.042.17a45.6,45.6,0,0,0-1.038,5.648q-15.082,17.566-37,17.572H929.053q-29.4,0-29.4-33.08,0-16.661,7.6-45.331l8.729-31.322.031-.117a44.3,44.3,0,0,0,8.074-6.959c7.947-8.689,12.147-18.912,12.147-29.565a37.978,37.978,0,0,0-1.088-9.165,23.354,23.354,0,0,1,12.292-3.489q14.209,0,14.212,12.75a23.946,23.946,0,0,1-.686,5.394l-8.419,31.1q-.251,0-8.664,31.1-5.513,21.582-5.509,30.9,0,9.568,6.873,10.79,6.869-.977,11.286-8.573,5.64-9.061,12.026-33.072l8.538-31.062q.73-2.692,8.3-31.13a23.7,23.7,0,0,1,23.14-18.191q8.588,0,11.944,4.72a72.8,72.8,0,0,0-13.084,26.517l-.013.046-.012.046Zm121.894-61.364-.02.073-.019.073c-5.741,21.584-8.532,38.448-8.532,51.556a71.39,71.39,0,0,0,2.438,19.272,21.987,21.987,0,0,1-7.373,8.926,24.006,24.006,0,0,1-14.089,4.778q-14.461,0-14.457-12.742a23.9,23.9,0,0,1,.682-5.391q2.5-9.8,2.5-15.192,0-6.367-3.913-8.086-2.445-1.223-10.513-1.225-6.117,0-7.091,4.357l-5.644,20.089a22.786,22.786,0,0,1-8.893,13.4,23.731,23.731,0,0,1-14.014,4.794q-12.906,0-14.212-10.275c.309-.429.619-.855.924-1.293,9.938-14.158,18.271-34.248,25.473-61.42,6.306-23.206,7.958-29.52,8.488-31.812l8.186-30.692.041-.155.039-.156a42.461,42.461,0,0,0,1.33-10.234c0-.707-.023-1.4-.059-2.092q11.787-9.518,30.885-10.9h18.378q24.981,0,30.058,20.686c-7.622,13.386-14.4,31.052-20.6,53.663M1216.892,223.3a22.22,22.22,0,0,1-17.152,7.546h-12.007q-9.069,0-12.987,2.7-5.88,4.168-10.537,18.868l-.245.49q-.735,2.205,1.96,2.45h27.445q13.967,0,13.966,12.987,0,8.58-6.861,16.172a22.15,22.15,0,0,1-17.152,7.6h-26.953q-2.942.248-3.431,2.451l-.245.49a59.532,59.532,0,0,0-1.471,11.516q0,6.864,3.921,8.821,2.447,1.23,9.557,1.226h12.252q13.965,0,13.966,12.9,0,8.523-6.883,16.065a22.316,22.316,0,0,1-17.206,7.546h-24.581q-19.2,0-25.9-13.976a123.339,123.339,0,0,0,4.82-32.091,70.961,70.961,0,0,0-.7-10.13,107.767,107.767,0,0,0,15.907-33.05l.042-.152.039-.152,3.129-12.032a91.528,91.528,0,0,0,3.641-24.855c0-2.672-.136-5.246-.382-7.738.2-.3.4-.617.608-.911q16.446-23.7,41.747-23.7h24.557q13.995,0,14,12.9,0,8.523-6.861,16.065"/>
    <path id="Path_14" data-name="Path 14" d="M209.907,223.057q6.9-7.547,6.9-16.065,0-12.9-13.966-12.9H153.836a22.154,22.154,0,0,0-17.152,7.6q-6.863,7.6-6.861,16.172,0,12.992,13.971,12.987,6.121,0,5.145,4.411l-26.957,99.729a22.351,22.351,0,0,0-.736,5.391q0,12.744,14.385,12.742a23.775,23.775,0,0,0,14.017-4.79,22.774,22.774,0,0,0,8.9-13.4L185.5,235.205q.989-4.6,7.149-4.6a22.419,22.419,0,0,0,17.259-7.546" fill="#fff"/>
    <path id="Path_15" data-name="Path 15" d="M250.064,353.121a22.316,22.316,0,0,0,17.206-7.546q6.881-7.548,6.884-16.066,0-12.9-13.967-12.9H247.936q-7.111,0-9.557-1.226-3.922-1.958-3.92-8.821a59.524,59.524,0,0,1,1.47-11.517l.245-.489q.487-2.207,3.43-2.451h26.954a22.15,22.15,0,0,0,17.152-7.6q6.858-7.591,6.861-16.172,0-12.985-13.966-12.987H249.161q-2.7-.242-1.961-2.451l.245-.489q4.651-14.7,10.537-18.869,3.916-2.692,12.987-2.695h12.006a22.22,22.22,0,0,0,17.153-7.546q6.857-7.547,6.861-16.065,0-12.9-14-12.9H268.434q-25.3,0-41.748,23.7-12.531,18.078-22.838,55.7-7.863,29.559-7.86,46.415,0,32.977,29.5,32.977Z" fill="#fff"/>
    <path id="Path_16" data-name="Path 16" d="M374.724,345.77q6.857-7.593,6.861-16.172,0-12.985-13.967-12.987-9.557-.735-9.557-8.332a16.02,16.02,0,0,1,.491-3.92q1.711-6.857,3.185-13.722,3.182-11.762,6.861-16.417L409.764,220.8q4.9-6.616,4.9-12.987a12.568,12.568,0,0,0-4.41-9.8,15.658,15.658,0,0,0-10.781-3.921q-10.539,0-18.378,10.047a5.968,5.968,0,0,1-4.9,1.96q-4.658-8.822-15.437-11.027-4.9-.977-21.563-.98a22.216,22.216,0,0,0-17.153,7.546q-6.862,7.546-6.86,16.066,0,12.9,13.966,12.9,9.557.5,9.557,8.347a16.261,16.261,0,0,1-.49,3.928q-1.717,6.88-3.186,13.752-3.187,11.785-6.861,16.449L287,326.6a21.9,21.9,0,0,0-4.655,13.014,13.552,13.552,0,0,0,3.8,9.82q3.795,3.93,10.169,3.929,11.514,0,19.357-10.047a5.973,5.973,0,0,1,4.9-1.96q6.369,12.009,24.749,12.007h12.252a22.152,22.152,0,0,0,17.152-7.6" fill="#fff"/>
    <path id="Path_17" data-name="Path 17" d="M502.185,223.057q6.9-7.547,6.9-16.065,0-12.9-13.966-12.9H446.114a22.154,22.154,0,0,0-17.152,7.6q-6.863,7.6-6.861,16.172,0,12.992,13.971,12.987,6.122,0,5.145,4.411L414.26,334.988a22.352,22.352,0,0,0-.736,5.391q0,12.744,14.385,12.742a23.775,23.775,0,0,0,14.017-4.79,22.774,22.774,0,0,0,8.9-13.4l26.953-99.729q.988-4.6,7.149-4.6a22.419,22.419,0,0,0,17.259-7.546" fill="#fff"/>
    <path id="Path_18" data-name="Path 18" d="M599.118,274.955q8.121-29.886,8.366-31.357l8.3-31.123a22.365,22.365,0,0,0,.735-5.391q0-12.744-14.128-12.746a23.7,23.7,0,0,0-23.14,18.191q-7.569,28.438-8.3,31.131l-8.539,31.062q-7.609,28.829-14.48,36.962-4.422,5.174-15.215,5.172-5.938,0-4.954-4.671l26.54-99.772a14.3,14.3,0,0,0,1.2-5.375q0-12.7-14.457-12.7a23.636,23.636,0,0,0-13.718,4.411,24.887,24.887,0,0,0-9.556,13.722L485.18,334.989a16.212,16.212,0,0,0-.735,4.655,13.186,13.186,0,0,0,3.921,9.924,13.821,13.821,0,0,0,10.046,3.8h38.716q41.16,0,61.99-78.411" fill="#fff"/>
    <path id="Path_19" data-name="Path 19" d="M654.244,353.121a22.315,22.315,0,0,0,17.2-7.546q6.879-7.548,6.885-16.066,0-12.9-13.967-12.9H652.115q-7.11,0-9.557-1.226-3.922-1.958-3.92-8.821a59.527,59.527,0,0,1,1.47-11.517l.245-.489q.487-2.207,3.43-2.451h26.953a22.151,22.151,0,0,0,17.153-7.6q6.858-7.591,6.861-16.172,0-12.985-13.967-12.987H653.34q-2.7-.242-1.961-2.451l.246-.489q4.652-14.7,10.535-18.869,3.917-2.692,12.988-2.695h12.006a22.22,22.22,0,0,0,17.153-7.546q6.858-7.547,6.861-16.065,0-12.9-14-12.9H672.613q-25.3,0-41.748,23.7-12.531,18.078-22.838,55.7-7.861,29.559-7.86,46.415,0,32.977,29.5,32.977Z" fill="#fff"/>
    <path id="Path_20" data-name="Path 20" d="M819.864,212.471a17.26,17.26,0,0,0,.979-5.391q0-12.738-14.375-12.742a23.385,23.385,0,0,0-13.646,4.426,24.963,24.963,0,0,0-9.5,13.765l-10.831,40.415a1.441,1.441,0,0,1-.984.938q-.737.247-.985-.735l-11.551-48.762q-2.215-10.291-13.519-10.291a23.9,23.9,0,0,0-14.258,5.023,24.755,24.755,0,0,0-9.338,13.354L689.26,334.989a17.131,17.131,0,0,0-.98,5.39q0,12.744,14.369,12.742a24.559,24.559,0,0,0,23.14-18.193l11-40.374q0-.729.98-.977c.491-.325.816-.08.981.736l11.52,48.762q2.205,10.291,13.481,10.291a23.774,23.774,0,0,0,14.216-5.023,23.52,23.52,0,0,0,9.07-13.354Z" fill="#fff"/>
    <path id="Path_21" data-name="Path 21" d="M909.324,223.057q6.9-7.547,6.9-16.065,0-12.9-13.967-12.9H853.253a22.157,22.157,0,0,0-17.153,7.6q-6.862,7.6-6.861,16.172,0,12.992,13.971,12.987,6.123,0,5.146,4.411L821.4,334.988a22.4,22.4,0,0,0-.735,5.391q0,12.744,14.385,12.742a23.77,23.77,0,0,0,14.016-4.79,22.769,22.769,0,0,0,8.9-13.4l26.954-99.729q.987-4.6,7.148-4.6a22.421,22.421,0,0,0,17.26-7.546" fill="#fff"/>
    <path id="Path_22" data-name="Path 22" d="M982.713,330.087q12.738-18.131,22.543-55.133,8.121-29.886,8.366-31.357l8.3-31.123a22.409,22.409,0,0,0,.734-5.391q0-12.744-14.128-12.746a23.7,23.7,0,0,0-23.139,18.191q-7.57,28.438-8.3,31.131l-8.538,31.062q-6.387,24.006-12.026,33.072-4.422,7.592-11.287,8.572-6.874-1.223-6.873-10.789,0-9.315,5.51-30.9,8.414-31.093,8.664-31.1l8.419-31.1a23.95,23.95,0,0,0,.686-5.395q0-12.75-14.212-12.75a23.649,23.649,0,0,0-13.726,4.411,24.882,24.882,0,0,0-9.556,13.722l-8.174,31.162-8.73,31.322q-7.6,28.669-7.6,45.332,0,33.079,29.4,33.079h12.252q25.234,0,41.407-23.278" fill="#fff"/>
    <path id="Path_23" data-name="Path 23" d="M1059.271,340.379q0,12.744,14.457,12.742a24.013,24.013,0,0,0,14.089-4.778,22.692,22.692,0,0,0,8.944-13.355q4.412-15.678,4.41-27.934a45.664,45.664,0,0,0-1.469-12.006,7.255,7.255,0,0,1,1.469-5.636,89.91,89.91,0,0,0,15.928-30.875l3.186-12.251a71.377,71.377,0,0,0,2.94-19.6q0-32.586-31.364-32.59h-18.378q-37.491,2.7-46.8,36.755l-27.934,104.14a22.4,22.4,0,0,0-.735,5.391q0,12.744,14.376,12.742a23.731,23.731,0,0,0,14.014-4.794,22.781,22.781,0,0,0,8.893-13.4l5.644-20.089q.975-4.353,7.091-4.357,8.069,0,10.513,1.225,3.912,1.718,3.914,8.086,0,5.393-2.5,15.192a23.956,23.956,0,0,0-.682,5.391m-6.126-71.06q-1.228,4.41,4.9,4.411,10.293,0,14.212-2.7,6.123-4.164,10.047-18.867a40.752,40.752,0,0,0,1.715-10.782q0-10.78-8.086-10.782-4.657,0-9.557,3.8a15.952,15.952,0,0,0-6.126,8.7Zm0,0q-1.228,4.41,4.9,4.411,10.293,0,14.212-2.7,6.123-4.164,10.047-18.867a40.752,40.752,0,0,0,1.715-10.782q0-10.78-8.086-10.782-4.657,0-9.557,3.8a15.952,15.952,0,0,0-6.126,8.7Z" fill="#fff"/>
    <path id="Path_24" data-name="Path 24" d="M1166.829,353.121a22.318,22.318,0,0,0,17.206-7.546q6.879-7.548,6.884-16.066,0-12.9-13.967-12.9H1164.7q-7.11,0-9.557-1.226-3.922-1.958-3.92-8.821a59.6,59.6,0,0,1,1.47-11.517l.245-.489q.489-2.207,3.431-2.451h26.953a22.154,22.154,0,0,0,17.153-7.6q6.858-7.591,6.861-16.172,0-12.985-13.967-12.987h-27.444q-2.7-.242-1.96-2.451l.245-.489q4.652-14.7,10.536-18.869,3.917-2.692,12.987-2.695h12.007a22.22,22.22,0,0,0,17.152-7.546q6.858-7.547,6.862-16.065,0-12.9-14-12.9H1185.2q-25.3,0-41.747,23.7-12.531,18.078-22.839,55.7-7.862,29.559-7.859,46.415,0,32.977,29.5,32.977Z" fill="#fff"/>
    <path id="Path_25" data-name="Path 25" d="M1053.145,269.319q-1.228,4.41,4.9,4.411,10.293,0,14.212-2.7,6.123-4.164,10.047-18.867a40.752,40.752,0,0,0,1.715-10.782q0-10.78-8.086-10.782-4.657,0-9.557,3.8a15.952,15.952,0,0,0-6.126,8.7Z"/>
    <path id="Path_26" data-name="Path 26" d="M600.5,168a37.017,37.017,0,0,1,8-8c2.733-2,4.984-3.642,8-4,4.594-.546,6.376,2.437,11,4,9.386,3.172,14.327-4.968,27-4,6.3.481,7.094,2.645,13,4,7.11,1.631,18.072,1.274,34-9a43.159,43.159,0,0,0,31,9q-.5,5.5-1,11h-74l-27,6Z" fill="#feec00"/>
  </g>
</svg>
