<svg xmlns="http://www.w3.org/2000/svg" width="205" height="196" viewBox="0 0 205 196">
  <g id="Group_9" data-name="Group 9" transform="translate(-1715 -884)">
    <g id="Group_7" data-name="Group 7" transform="translate(1715 884)">
      <rect id="Rectangle_29" data-name="Rectangle 29" width="205" height="90.127" transform="translate(0 105.873)" fill="#00bf3b"/>
      <rect id="Rectangle_30" data-name="Rectangle 30" width="6" height="90.127" transform="translate(0 105.873)" fill="#009d3b"/>
      <rect id="Rectangle_31" data-name="Rectangle 31" width="6" height="90.127" transform="translate(199 105.873)" fill="#00c83b"/>
      <path id="Path_36" data-name="Path 36" d="M0,105.873l6,4.935H199l6-4.935Z" fill="#00de75"/>
      <rect id="Rectangle_32" data-name="Rectangle 32" width="51" height="15.873" transform="translate(27 90)" fill="#00bf3b"/>
      <rect id="Rectangle_33" data-name="Rectangle 33" width="1.493" height="15.873" transform="translate(27 90)" fill="#009d3b"/>
      <rect id="Rectangle_34" data-name="Rectangle 34" width="1.493" height="15.873" transform="translate(76.507 90)" fill="#00c83b"/>
      <path id="Path_37" data-name="Path 37" d="M27,90l1.493.869H76.507L78,90Z" fill="#00de75"/>
      <rect id="Rectangle_35" data-name="Rectangle 35" width="51" height="15.873" transform="translate(120 90)" fill="#00bf3b"/>
      <rect id="Rectangle_36" data-name="Rectangle 36" width="1.493" height="15.873" transform="translate(120 90)" fill="#009d3b"/>
      <rect id="Rectangle_37" data-name="Rectangle 37" width="1.493" height="15.873" transform="translate(169.507 90)" fill="#00c83b"/>
      <path id="Path_38" data-name="Path 38" d="M120,90l1.493.869h48.015L171,90Z" fill="#00de75"/>
      <rect id="Rectangle_38" data-name="Rectangle 38" width="205" height="90.127" transform="translate(0 15.873)" fill="gold"/>
      <rect id="Rectangle_39" data-name="Rectangle 39" width="6" height="90.127" transform="translate(0 15.873)" fill="#ffbc00"/>
      <rect id="Rectangle_40" data-name="Rectangle 40" width="6" height="90.127" transform="translate(199 15.873)" fill="#ffd769"/>
      <path id="Path_39" data-name="Path 39" d="M0,15.873l6,4.935H199l6-4.935Z" fill="#ffd79a"/>
      <rect id="Rectangle_41" data-name="Rectangle 41" width="51" height="15.873" transform="translate(27)" fill="gold"/>
      <rect id="Rectangle_42" data-name="Rectangle 42" width="1.493" height="15.873" transform="translate(27)" fill="#ffbc00"/>
      <rect id="Rectangle_43" data-name="Rectangle 43" width="1.492" height="15.873" transform="translate(76.508)" fill="#ffd769"/>
      <path id="Path_40" data-name="Path 40" d="M27,0l1.493.869H76.507L78,0Z" fill="#ffd79a"/>
      <rect id="Rectangle_44" data-name="Rectangle 44" width="51" height="15.873" transform="translate(120)" fill="gold"/>
      <rect id="Rectangle_45" data-name="Rectangle 45" width="1.493" height="15.873" transform="translate(120)" fill="#ffbc00"/>
      <rect id="Rectangle_46" data-name="Rectangle 46" width="1.492" height="15.873" transform="translate(169.508)" fill="#ffd769"/>
      <path id="Path_41" data-name="Path 41" d="M120,0l1.493.869h48.015L171,0Z" fill="#ffd79a"/>
    </g>
  </g>
</svg>
