<?xml version="1.0" encoding="utf-8"?>
<!-- Generator: Adobe Illustrator 27.1.1, SVG Export Plug-In . SVG Version: 6.00 Build 0)  -->
<svg version="1.1" id="Laag_1" xmlns="http://www.w3.org/2000/svg" xmlns:xlink="http://www.w3.org/1999/xlink" x="0px" y="0px"
	 viewBox="0 0 1920 1080" style="enable-background:new 0 0 1920 1080;" xml:space="preserve">
<g>
	<path d="M1027.7,969.2c0.4-114.2,0.4-228.4,0.7-342.3c0-7.4,0-14.7,0-21.4c2.2-1.5,2.9-2.6,4.1-2.6c62.6,1.8,125.3-0.7,187.2,6.3
		c80.7,9.2,129.7,66.3,135.2,147.7c2.6,40.5,0.4,80.7-16.6,119c-24.3,54.5-67.8,81.8-125.3,89.5c-6.6,0.7-12.9,2.6-19.5,3.7
		C1138.2,969.2,1083,969.2,1027.7,969.2z M1120.5,896.3c50.1-1.1,101.3,7.4,131.9-43.5c22.8-37.9,19.2-110.5-6.3-142.2
		c-33.9-42.7-80.7-31.3-126-32.1C1120.5,751.8,1120.5,822.6,1120.5,896.3z"/>
	<path d="M1341.2,110.8c0,70.4,0.4,141.1-0.4,211.5c-0.7,128.2-104.3,197.5-225.1,151.4c-60.1-22.8-86.6-64.8-87.3-140.4
		c-0.7-70,0-139.6,0-209.6c0-4.4-0.4-8.5-0.7-12.9c30.6,0,61.5,0,92.1,0c0,79.9-0.4,159.5,0,239.5c0,39.1,13.6,54.9,51.6,60.8
		c11.4,1.8,23.2,0.7,34.6-1.1c26.9-4.4,40.5-19.5,43.1-46.8c1.5-14,2.2-28,2.2-42.4c0.4-70,0.7-140,1.1-210
		C1282.3,110.8,1311.8,110.8,1341.2,110.8z"/>
	<path d="M902.4,110.8c8.8,52.3-11.8,91-49,127.5c-49.7,49-94.3,103.5-140.7,155.5c-2.6,2.9-5.5,6.3-10.7,12.5
		c68.2,0,132.6,0,198.2,0c0,24.7,0,46.8,0,70.4c-102.8,0-205.6,0-310.6,0c0-20.3-0.7-40.5,0.4-60.4c0.4-5.9,5.5-11.8,9.9-16.6
		c60.1-67.4,120.1-134.5,180.5-201.5c4.1-4.4,7.4-8.8,13.6-16.2c-63.7,0-123.4,0-186.4,0c0-24.7,0-47.9,0-70.7
		C706.1,110.8,804.1,110.8,902.4,110.8z"/>
	<path d="M699.8,969.2c0.4-54.5,0.7-109,0.4-163.6c0-6.6-4.1-14-7.7-19.5c-38.7-56-78.1-111.3-117.2-167.3
		c-2.9-4.4-5.9-8.8-11.1-16.6c34.3,0,65.9-0.4,97.3,0.4c4.4,0,9.6,6.6,12.5,11.4c23.6,37.2,47.2,74.4,71.5,113.5
		c21-32.8,42.7-63,60.1-95.4c12.9-24.7,29.5-33.9,56.7-30.6c19.9,2.6,40.5,0.4,64.1,0.4c-4.1,6.6-7,11.8-10.3,16.2
		c-37.9,52.7-75.5,105.7-113.8,158c-9.9,13.6-14,27.3-14,43.8c0.7,49.7,0,99.5-0.4,148.8C758.8,969.2,729.3,969.2,699.8,969.2z"/>
</g>
</svg>
